<svg xmlns="http://www.w3.org/2000/svg" width="1200" height="800" viewBox="0 0 1200 800" role="img" aria-labelledby="title desc">
  <title id="title">SiteChat RAG Bot and Estimate256 ML Estimation Engine</title>
  <desc id="desc">A combined RAG chatbot and ML estimation engine project card.</desc>
  <defs>
    <linearGradient id="bg" x1="0" y1="0" x2="1" y2="1">
      <stop offset="0" stop-color="#082f49"/>
      <stop offset="1" stop-color="#111827"/>
    </linearGradient>
    <linearGradient id="accent" x1="0" y1="0" x2="1" y2="1">
      <stop offset="0" stop-color="#34d399"/>
      <stop offset="1" stop-color="#fbbf24"/>
    </linearGradient>
  </defs>
  <rect width="1200" height="800" rx="36" fill="url(#bg)"/>
  <text x="78" y="106" fill="#bae6fd" font-family="Geist, Arial, sans-serif" font-size="22" letter-spacing="4">RAG + ML PRODUCTS</text>
  <text x="78" y="168" fill="#ffffff" font-family="Geist, Arial, sans-serif" font-size="54" font-weight="700">SITECHAT</text>
  <text x="78" y="222" fill="#fde68a" font-family="Geist, Arial, sans-serif" font-size="34" font-weight="600">&amp; Estimate256</text>
  <g transform="translate(90 306)" font-family="Geist, Arial, sans-serif">
    <rect width="470" height="322" rx="30" fill="#020617" opacity=".74" stroke="#0ea5e9"/>
    <text x="30" y="56" fill="#ffffff" font-size="30" font-weight="700">RAG CHATBOT</text>
    <rect x="32" y="92" width="300" height="58" rx="18" fill="#0f172a" stroke="#38bdf8"/>
    <text x="58" y="129" fill="#e0f2fe" font-size="20">Index any website</text>
    <rect x="136" y="176" width="300" height="58" rx="18" fill="#164e63"/>
    <text x="162" y="213" fill="#ffffff" font-size="20">Answer with sources</text>
    <circle cx="76" cy="258" r="24" fill="#34d399"/>
    <circle cx="150" cy="258" r="24" fill="#38bdf8"/>
    <circle cx="224" cy="258" r="24" fill="#fbbf24"/>
  </g>
  <g transform="translate(646 306)" font-family="Geist, Arial, sans-serif">
    <rect width="464" height="322" rx="30" fill="#020617" opacity=".74" stroke="#fbbf24"/>
    <text x="30" y="56" fill="#ffffff" font-size="30" font-weight="700">ML ESTIMATION</text>
    <path d="M52 250h342" stroke="#475569" stroke-width="4"/>
    <path d="M52 250V98" stroke="#475569" stroke-width="4"/>
    <path d="M76 222c54-88 92-70 132-104 50-42 86-34 154-10" fill="none" stroke="url(#accent)" stroke-width="14" stroke-linecap="round"/>
    <rect x="54" y="270" width="100" height="24" rx="12" fill="#34d399"/>
    <rect x="182" y="270" width="100" height="24" rx="12" fill="#38bdf8"/>
    <rect x="310" y="270" width="100" height="24" rx="12" fill="#fbbf24"/>
  </g>
  <text x="96" y="700" fill="#e5e7eb" font-family="Geist, Arial, sans-serif" font-size="30" font-weight="700">FAISS indexing  /  FastAPI  /  XGBoost models  /  React SPA</text>
</svg>
